<?xml version="1.0" standalone="no"?><!DOCTYPE svg PUBLIC "-//W3C//DTD SVG 1.1//EN" "http://www.w3.org/Graphics/SVG/1.1/DTD/svg11.dtd"><svg t="1670330453379" class="icon" viewBox="0 0 1032 1024" version="1.1" xmlns="http://www.w3.org/2000/svg" p-id="11603" xmlns:xlink="http://www.w3.org/1999/xlink" width="201.5625" height="200"><path d="M766.448906 0.115163c-119.920312-2.606963-228.109289 39.75619-250.268477 54.746229C464.041163 19.667387 364.976557 5.98083 275.688064 5.98083 148.598603 5.98083 0.001695 34.005686 0.001695 112.214585v875.93967a34.542264 34.542264 0 0 0 13.034816 27.373114 33.238782 33.238782 0 0 0 28.676597 7.82089 1390.814922 1390.814922 0 0 1 234.626697-18.900484 1388.8597 1388.8597 0 0 1 233.974956 18.900484h11.731335s151.855612-18.248743 233.974957-18.248743a1450.775078 1450.775078 0 0 1 233.974956 18.248743h6.517408a33.238782 33.238782 0 0 0 22.810929-8.472631 34.542264 34.542264 0 0 0 13.034817-27.373114V112.214585c0-45.621858-130.348165-108.840718-265.910257-112.099422z" fill="#2588C4" p-id="11604"></path><path d="M394.956635 680.532585H152.509048a14.338298 14.338298 0 1 1 0-28.676597h242.447587a14.338298 14.338298 0 0 1 0 28.676597zM394.956635 562.567495H152.509048a14.338298 14.338298 0 0 1-14.338298-14.990039 14.338298 14.338298 0 0 1 14.338298-14.338298h242.447587a14.338298 14.338298 0 0 1 14.338298 14.338298 14.338298 14.338298 0 0 1-14.338298 14.990039zM394.956635 443.950665H152.509048a14.338298 14.338298 0 0 1 0-28.676596h242.447587a14.338298 14.338298 0 0 1 0 28.676596zM394.956635 322.726871H152.509048a14.338298 14.338298 0 1 1 0-28.676596h242.447587a14.338298 14.338298 0 1 1 0 28.676596zM655.652966 551.487901h11.731334l4.562186-2.606963L757.976275 475.885965l85.378048 72.343232 4.562186 2.606963h12.383076a11.731335 11.731335 0 0 0 4.562186-3.258704 9.776112 9.776112 0 0 0 4.562185-9.124371V21.62261a11.079594 11.079594 0 0 0-4.562185-9.124372c-2.606963-2.606963-65.825823-13.686557-112.099422-12.383075a555.283184 555.283184 0 0 0-97.109383 9.776112 12.383076 12.383076 0 0 0-9.124372 11.731335v518.133956a13.034817 13.034817 0 0 0 9.124372 11.731335zM879.200069 697.477846H636.752482a14.338298 14.338298 0 0 0-14.338299 14.338298 16.293521 16.293521 0 0 0 14.338299 15.64178h242.447587a16.293521 16.293521 0 0 0 14.338298-15.64178 14.338298 14.338298 0 0 0-14.338298-14.338298z" fill="#C7E2F3" p-id="11605"></path><path d="M521.394355 1023.348259h-10.427853V50.950947l5.213927 3.910445 5.213926-3.258704z" fill="#216789" p-id="11606"></path></svg>